<svg xmlns="http://www.w3.org/2000/svg" viewBox="0 0 24.41 19.69"><defs><style>.cls-1{fill:#616262;stroke:#616462;stroke-miterlimit:10;stroke-width:1.25px;}</style></defs><title>Asset 9</title><g id="Layer_2" data-name="Layer 2"><g id="Layer_1-2" data-name="Layer 1"><path class="cls-1" d="M23.69,5.9a.49.49,0,0,0-.4-.21H5.44L4.12,1A.49.49,0,0,0,3.65.63H1.11a.49.49,0,1,0,0,1H3.28l3.08,11a2.08,2.08,0,0,0,0,4.16H7a1.6,1.6,0,1,0,2.95,0h5.18a1.6,1.6,0,1,0,2.88,0h.86a.49.49,0,1,0,0-1H6.39a1.1,1.1,0,0,1,0-2.2H20.89a.49.49,0,0,0,.48-.42l2.39-6.83A.49.49,0,0,0,23.69,5.9Zm-7.1,12.18a.62.62,0,1,1,.62-.62A.62.62,0,0,1,16.59,18.08Zm-7.47-.69a.62.62,0,1,1-.62-.62A.62.62,0,0,1,9.12,17.39Zm11.41-4.78H7.38L5.71,6.67H22.6Z"/></g></g></svg>