<?xml version="1.0" encoding="utf-8"?>
<!-- Generator: Adobe Illustrator 23.1.1, SVG Export Plug-In . SVG Version: 6.00 Build 0)  -->
<svg version="1.1" id="Layer_1" xmlns="http://www.w3.org/2000/svg" xmlns:xlink="http://www.w3.org/1999/xlink" x="0px" y="0px"
	 viewBox="0 0 990 300" style="enable-background:new 0 0 990 300;" xml:space="preserve">
<style type="text/css">
	.st0{fill:url(#SVGID_1_);}
	.st1{fill:url(#SVGID_2_);}
	.st2{fill:url(#SVGID_3_);}
	.st3{fill:url(#SVGID_4_);}
	.st4{fill:url(#SVGID_5_);}
	.st5{fill:url(#SVGID_6_);}
	.st6{fill:url(#SVGID_7_);}
	.st7{fill:url(#SVGID_8_);}
	.st8{fill:url(#SVGID_9_);}
	.st9{fill:#212121;}
	.st10{fill:#009CA6;}
</style>
<g>
	<g>
		<g>
			<linearGradient id="SVGID_1_" gradientUnits="userSpaceOnUse" x1="730.037" y1="44.7796" x2="908.1661" y2="44.7796">
				<stop  offset="0" style="stop-color:#6CC24A"/>
				<stop  offset="0.5" style="stop-color:#00A499"/>
				<stop  offset="1" style="stop-color:#009CA6"/>
			</linearGradient>
			<polygon class="st0" points="908.14,88.61 908.14,88.61 908.17,88.61 791.85,0.95 799.28,87.42 			"/>
			<linearGradient id="SVGID_2_" gradientUnits="userSpaceOnUse" x1="814.4489" y1="269.9992" x2="900.7985" y2="269.9992">
				<stop  offset="0" style="stop-color:#249039"/>
				<stop  offset="1" style="stop-color:#006B51"/>
			</linearGradient>
			<polygon class="st1" points="814.45,280.26 910.22,297.64 863.04,242.35 			"/>
			<linearGradient id="SVGID_3_" gradientUnits="userSpaceOnUse" x1="944.4745" y1="153.2366" x2="984.47" y2="153.2366">
				<stop  offset="0" style="stop-color:#6CC24A"/>
				<stop  offset="0.5" style="stop-color:#00A499"/>
				<stop  offset="1" style="stop-color:#009CA6"/>
			</linearGradient>
			<polygon class="st2" points="944.47,178.82 984.47,147.95 958.36,127.65 			"/>
			<linearGradient id="SVGID_4_" gradientUnits="userSpaceOnUse" x1="732.5778" y1="131.6414" x2="802.8352" y2="131.6414">
				<stop  offset="0" style="stop-color:#6CC24A"/>
				<stop  offset="0.5" style="stop-color:#00A499"/>
				<stop  offset="1" style="stop-color:#009CA6"/>
			</linearGradient>
			<polygon class="st3" points="799.28,87.42 730.04,86.66 806.95,176.63 			"/>
			<linearGradient id="SVGID_5_" gradientUnits="userSpaceOnUse" x1="806.9539" y1="228.443" x2="910.206" y2="228.443">
				<stop  offset="0" style="stop-color:#6CC24A"/>
				<stop  offset="0.5" style="stop-color:#00A499"/>
				<stop  offset="1" style="stop-color:#009CA6"/>
			</linearGradient>
			<polygon class="st4" points="806.95,176.63 814.45,280.26 863.04,242.35 			"/>
			<linearGradient id="SVGID_6_" gradientUnits="userSpaceOnUse" x1="809.9016" y1="238.232" x2="939.9005" y2="238.232">
				<stop  offset="0" style="stop-color:#6CC24A"/>
				<stop  offset="0.5" style="stop-color:#00A499"/>
				<stop  offset="1" style="stop-color:#009CA6"/>
			</linearGradient>
			<polygon class="st5" points="910.22,297.64 944.47,178.82 863.04,242.35 			"/>
			<linearGradient id="SVGID_7_" gradientUnits="userSpaceOnUse" x1="908.1665" y1="108.1302" x2="984.4621" y2="108.1302">
				<stop  offset="0" style="stop-color:#6CC24A"/>
				<stop  offset="0.5" style="stop-color:#00A499"/>
				<stop  offset="1" style="stop-color:#009CA6"/>
			</linearGradient>
			<polygon class="st6" points="908.17,88.61 958.36,127.65 969.46,89.3 			"/>
			<linearGradient id="SVGID_8_" gradientUnits="userSpaceOnUse" x1="730.037" y1="44.1839" x2="806.9538" y2="44.1839">
				<stop  offset="0" style="stop-color:#249039"/>
				<stop  offset="1" style="stop-color:#006B51"/>
			</linearGradient>
			<polygon class="st7" points="791.85,0.95 730.04,86.66 799.28,87.42 			"/>
		</g>
		<linearGradient id="SVGID_9_" gradientUnits="userSpaceOnUse" x1="934.7921" y1="118.6249" x2="983.7535" y2="118.6249">
			<stop  offset="0.3073" style="stop-color:#249039"/>
			<stop  offset="0.5097" style="stop-color:#107C46"/>
			<stop  offset="0.7113" style="stop-color:#046F4E"/>
			<stop  offset="0.9059" style="stop-color:#006B51"/>
		</linearGradient>
		<polygon class="st8" points="984.47,147.95 969.46,89.3 958.36,127.65 		"/>
	</g>
	<path class="st9" d="M526,164.49h-0.03c-5.74,0-10.39,4.65-10.39,10.39v0.03c0,5.74,4.65,10.39,10.39,10.39H526
		c5.74,0,10.39-4.65,10.39-10.39v-0.03C536.38,169.14,531.73,164.49,526,164.49z"/>
	<g>
		<polygon class="st10" points="4.47,280.26 24.06,280.26 24.06,232.37 68.48,232.37 68.48,215.34 24.06,215.34 24.06,182.56 
			74.87,182.56 74.87,165.69 4.47,165.69 		"/>
		<polygon class="st10" points="156.53,182.56 156.53,165.69 84.69,165.69 84.69,280.26 156.53,280.26 156.53,263.39 104.27,263.39 
			104.27,231.41 149.82,231.41 149.82,214.38 104.43,214.38 104.43,182.56 		"/>
	</g>
	<path class="st9" d="M314.45,246.97c0,6.52-1.44,11.37-4.28,14.41c-2.82,3.02-7.33,4.55-13.41,4.55c-6.07,0-10.58-1.53-13.41-4.55
		c-2.84-3.04-4.28-7.89-4.28-14.41v-48.95h-18.79v51.34c0,10.8,3.26,19.15,9.69,24.8c6.39,5.63,15.4,8.48,26.79,8.48
		c11.29,0,20.17-2.86,26.4-8.49c6.27-5.66,9.44-14,9.44-24.8v-51.34h-18.15V246.97z"/>
	<path class="st9" d="M407.93,203.55c-5.49-4.83-14.05-7.28-25.43-7.28c-6.32,0-13.04,0.79-19.96,2.34
		c-6.92,1.56-12.89,3.6-17.73,6.08l-0.55,0.28v75.29h18.79V215.4c5.21-1.82,10.73-2.74,16.41-2.74c12.12,0,18.01,5.16,18.01,15.77
		v51.82h18.79V226.2C416.27,216.04,413.46,208.42,407.93,203.55z"/>
	<path class="st9" d="M484.32,200.01c-2.69-1.19-5.69-2.11-8.95-2.76c-3.84-0.75-7.26-1.14-10.18-1.14
		c-12.61,0-22.27,3.77-28.72,11.21c-6.42,7.4-9.67,17.78-9.67,30.86c0,16.32,3.83,27.94,11.37,34.55c7.5,6.58,17.19,9.92,28.79,9.92
		c5.69,0,11.32-0.71,16.71-2.11c5.45-1.42,10.04-3.66,13.65-6.67c3.74-3.12,5.64-7.01,5.64-11.56v-96.85h-18.63V200.01z
		 M484.32,260.72c0,1.44-1.47,2.67-4.36,3.68c-3.23,1.13-7.28,1.7-12.05,1.7c-8.13,0-13.87-2.4-17.06-7.15
		c-3.28-4.87-4.94-11.75-4.94-20.45c0-17.49,7.09-26,21.68-26c2.88,0,5.89,0.39,8.94,1.17c2.83,0.72,5.45,1.74,7.79,3.05V260.72z"/>
	<polygon class="st9" points="516.51,197.96 516.51,280.26 535.46,280.26 535.3,197.96 	"/>
	<path class="st9" d="M612.79,203.55c-5.49-4.83-14.05-7.28-25.43-7.28c-6.32,0-13.04,0.79-19.96,2.34
		c-6.93,1.56-12.89,3.6-17.73,6.08l-0.55,0.28v75.29h18.79V215.4c5.21-1.82,10.73-2.74,16.41-2.74c12.12,0,18.01,5.16,18.01,15.77
		v51.82h18.79V226.2C621.13,216.04,618.32,208.42,612.79,203.55z"/>
	<path class="st9" d="M668.62,164.15c-7.85,0-14.7,2.11-20.33,6.27c-5.73,4.23-8.64,12.78-8.64,25.42v2.19h-12.94v15.92h12.78v66.32
		h18.79v-66.32h19.3v-15.92h-19.14v-3.63c0-4.28,0.58-7.47,1.71-9.5c1.09-1.95,2.47-3.22,4.08-3.77c1.75-0.6,3.92-0.9,6.46-0.9
		c1.27,0,2.35,0.14,3.2,0.43c0.91,0.31,2,0.77,3.23,1.38l1.46,0.73v-17.28l-0.76-0.19C674.75,164.54,671.66,164.15,668.62,164.15z"
		/>
	<path class="st9" d="M241.28,165.1c-7.85,0-14.69,2.11-20.33,6.27c-5.73,4.23-8.64,12.78-8.64,25.42v1.23h-12.94v15.92h12.78v66.32
		h18.79v-66.32h19.3v-15.92H231.1v-2.67c0-4.28,0.58-7.47,1.71-9.5c1.09-1.95,2.47-3.22,4.08-3.77c1.75-0.6,3.92-0.9,6.46-0.9
		c1.27,0,2.35,0.14,3.2,0.43c0.91,0.31,2,0.77,3.23,1.38l1.46,0.73v-17.28l-0.76-0.19C247.41,165.49,244.32,165.1,241.28,165.1z"/>
	<g>
		<path class="st9" d="M747.55,207.23c-6.67-7.38-16.7-11.12-29.83-11.12c-26.12,0-39.36,14.48-39.36,43.03
			c0,14.04,3.34,24.91,9.92,32.31c6.61,7.43,16.57,11.2,29.59,11.2c12.6,0,22.47-3.82,29.35-11.35
			c6.86-7.51,10.33-18.33,10.33-32.16C757.55,225.32,754.19,214.58,747.55,207.23z M717.72,266.42c-7.19,0-12.48-2.3-15.72-6.85
			c-3.32-4.65-5.01-11.52-5.01-20.43c0-8.91,1.63-15.73,4.85-20.27c3.14-4.44,8.48-6.69,15.88-6.69c7.3,0,12.68,2.21,15.98,6.55
			c3.36,4.43,5.07,11.3,5.07,20.4C738.76,257.5,731.88,266.42,717.72,266.42z"/>
	</g>
</g>
</svg>
