<?xml version="1.0" encoding="UTF-8"?>
<svg width="676px" height="203px" viewBox="0 0 676 203" version="1.1" xmlns="http://www.w3.org/2000/svg" xmlns:xlink="http://www.w3.org/1999/xlink">
    <!-- Generator: Sketch 53.2 (72643) - https://sketchapp.com -->
    <title>RAD BLU LOCKUP RGB</title>
    <desc>Created with Sketch.</desc>
    <g id="Page-1" stroke="none" stroke-width="1" fill="none" fill-rule="evenodd">
        <g id="RAD-BLU-LOCKUP-RGB">
            <path d="M76.614,175.024 C77.504,173.938 78.342,172.278 82.872,171.176 C82.872,171.176 236.667,118.936 441.266,129.386 C441.266,129.386 452.884,128.958 449.73,134.037 C447.881,137.017 444.428,137.206 437.869,137.544 C437.869,137.544 435.643,137.888 426.938,137.795 C426.938,137.795 447.861,145.917 365.27,144.229 C365.27,144.229 372.562,151.668 342.191,149.523 C342.191,149.523 257.489,145.669 86.296,176.702 C86.296,176.702 72.833,179.612 76.614,175.024" id="Fill-1" fill="#292D71"></path>
            <path d="M529.541,105.076 C529.541,105.076 553.489,124.82 523.776,123.817 C523.776,123.817 518,124.253 514.458,112.358 C514.458,112.358 504.25,89.031 504.993,80.214 C503.982,81.344 498.33,88.159 495.094,95.689 C493.223,100.042 492.46,101.555 489.783,105.722 C488.311,107.811 486.909,109.695 485.595,110.907 C472.473,123.069 471.2,107.533 471.2,107.533 C468.489,94.289 475.286,73.038 475.286,73.038 C480.221,58.369 487.48,64.411 487.48,64.411 C497.536,67.032 493.466,76.726 493.466,76.726 C491.319,84.121 489.392,82.516 489.392,82.516 C486.909,84.157 486.23,87.7 486.055,89.939 C486.055,89.939 485.114,98.147 488.788,91.859 C491.549,86.242 496.9,76.89 500.79,73.905 C500.79,73.905 506.521,67.807 509.869,72.83 C509.869,72.83 524.313,101.854 529.541,105.076 Z M120.016,167.647 C126.146,176.198 130.836,182.235 129.55,183.358 C125.38,186.989 106.608,172.319 106.608,172.319 C73.951,145.238 59.518,110.725 56.358,102.341 C55.894,101.116 56.817,100.019 56.817,100.019 C57.934,98.784 59.707,98.095 64.442,97.561 C64.426,97.558 64.459,97.564 64.442,97.561 C61.96,96.367 61.184,96.054 61.401,95.223 C61.876,93.872 66.451,93.908 66.451,93.908 C70.06,93.744 72.682,93.518 72.682,93.518 C77.977,92.957 80.664,92.465 80.664,92.465 C91.935,90.664 96.351,85.769 96.351,85.769 C107.498,74.474 89.592,63.154 89.592,63.154 C44.208,37.075 7.663,49.44 7.663,49.44 C5.679,50.009 4.158,50.019 1.983,49.309 C-2.779,47.721 5.685,40.981 5.685,40.981 C28.195,22.337 40.005,27.921 40.005,27.921 C83.732,30.825 102.975,53.686 102.975,53.686 C118.213,69.809 114.262,82.664 112.215,86.404 C104.761,100.044 87.094,100.385 87.094,100.385 C84.342,100.54 81.932,100.613 79.801,100.62 C81.832,102.934 83.318,106.977 83.318,106.977 C86.709,117.611 120.016,167.647 120.016,167.647 Z M61.261,58.12 C63.715,62.599 60.44,69.712 60.44,69.712 C46.269,98.693 28.553,167.134 25.012,181.089 L25.087,181.072 C25.087,181.072 24.997,181.288 24.865,181.679 C24.546,182.93 24.378,183.609 24.378,183.609 C24.143,184.642 23.897,185.563 23.648,186.43 C23.257,188.575 22.958,191.274 23.03,194.36 L22.983,194.346 C23.099,198.051 22.938,201.849 21.823,202.359 C18.636,203.816 16.991,199.551 16.113,194.909 C12.99,194.181 10.427,190.135 10.427,190.135 C-1.062,182.44 7.528,161.051 7.528,161.051 C15.328,130.068 53.994,64.739 53.994,64.739 C58.527,57.433 60.406,56.564 61.261,58.12 Z M150.374,118.767 C149.409,120.317 148.489,122.062 145.999,123.654 C145.999,123.654 133.217,131.478 133.666,120.426 C133.666,120.426 134.089,114.308 136.199,108.61 C136.199,108.61 142.083,93.653 151.207,84.933 C152.045,84.088 152.771,84.006 153.238,84.64 C154.509,86.381 154.729,88.369 155.696,89.991 C155.95,90.419 156.23,90.865 156.531,91.293 C155.444,96.902 152.638,107.54 152.168,115.585 C151.821,116.692 151.022,117.731 150.374,118.767 Z M184.054,111.861 C184.054,111.861 183.995,111.496 183.673,111.201 C182.829,110.619 178.688,112.489 174.578,114.963 C173.924,115.354 173.332,115.695 172.784,116.003 C171.272,116.936 169.816,117.873 169.231,118.38 C169.231,118.38 166.585,120.488 166.875,115.751 C166.879,115.685 166.881,115.628 166.887,115.563 L166.881,115.563 C166.931,114.506 167.132,113.168 167.197,111.735 C167.197,111.735 170.825,97.249 172.393,93.196 C172.393,93.196 173.254,89.377 174.606,85.026 C174.606,85.026 180.781,78.602 169.438,76.52 C169.438,76.52 164.008,63.191 158.175,84.19 L158.172,84.183 C157.763,82.019 155.787,78.693 152.732,77.378 C152.125,77.027 151.261,76.771 150.06,76.667 C149.608,76.625 149.306,76.747 148.305,76.613 C148.305,76.613 142.871,74.739 137.041,82.023 C130.847,88.84 112.774,110.51 116.9,128.657 C116.9,128.657 119.133,138.047 127.481,137.997 C127.481,137.997 138.519,138.123 146.863,130.213 C146.863,130.213 149.366,128.005 152.045,124.731 C152.146,125.843 152.324,127.071 152.643,128.279 C152.696,128.518 152.751,128.753 152.814,128.979 C152.814,128.979 153.125,131.087 154.845,132.673 C156.113,133.845 158.154,134.736 161.408,134.295 C161.735,134.226 162.074,134.147 162.426,134.037 C162.426,134.037 174.109,131.213 173.823,126.246 C173.679,123.793 174.567,123.303 174.567,123.303 C174.567,123.303 175.312,122.893 175.046,122.031 C175.046,122.031 184.367,115.801 184.054,111.861 Z M386.024,74.051 C391.234,77.689 399.96,85.747 398.52,94.149 C398.52,94.149 396.005,113.089 364.669,112.444 C364.669,112.444 361.255,112.258 361.189,110.146 C361.197,108.586 361.841,107.341 364.535,106.312 C364.535,106.312 384.912,99.723 371.564,75.239 C371.564,75.239 366.526,79.139 359.453,84.624 C359.453,84.624 354.514,90.068 354.872,82.335 C354.872,82.335 355.304,78.061 357.14,76.415 C357.14,76.415 368.504,69.709 372.272,59.23 C374.163,52.31 384.291,46.462 385.274,52.285 C385.717,54.908 382.702,56.552 381.214,58.413 C377.823,62.661 382.177,71.622 386.024,74.051 Z M431.462,59.869 C436.925,52.643 440.751,55.908 440.751,55.908 C441.271,56.197 442.362,55.848 442.814,55.815 C450.07,55.265 444.114,62.396 444.114,62.396 C438.001,70.705 432.46,86.238 432.46,86.238 C431.063,89.757 429.716,95.415 429.716,95.415 C427.502,104.841 437.437,98.171 437.437,98.171 C438.857,97.166 440.158,95.736 440.829,95.108 C441.965,94.031 442.948,93.908 442.948,93.908 C445.024,93.615 441.496,82.82 441.496,82.82 C439.991,78.549 440.253,78.357 440.253,78.357 C439.285,73.117 442.203,71.77 442.203,71.77 C445.306,69.876 447.807,74.838 447.807,74.838 C450.584,79.066 453.049,90.195 453.049,90.195 C455.415,100.059 448.023,99.289 448.023,99.289 C444.959,99.892 439.718,105.103 439.718,105.103 C431.56,111.851 420.185,112.51 420.185,112.51 C408.894,112.906 409.794,102.963 409.794,102.963 C409.709,92.198 431.462,59.869 431.462,59.869 Z M301.351,34.46 C301.035,37.409 299.456,39.87 297.321,41.174 C294.255,43.479 287.913,47.428 285.874,46.896 C283.809,46.358 286.14,39.818 286.253,37.984 C286.377,35.913 286.37,34.4 286.791,32.492 C287.454,28.029 291.023,24.803 294.938,25.216 C298.981,25.649 301.85,29.783 301.351,34.46 Z M328.696,63.532 C328.696,63.532 347.136,83.171 346.379,96.782 C346.379,96.782 343.866,115.718 312.531,115.069 C312.531,115.069 304.778,113.913 312.395,108.944 C312.395,108.944 332.767,102.354 319.424,77.867 C319.424,77.867 306.808,92.674 298.459,100.871 L298.518,100.938 C274.643,124.234 269.94,115.682 269.94,115.682 C260.852,102.672 267.511,74.209 267.511,74.209 C271.04,59.141 278.834,64.473 278.834,64.473 C290.222,66.322 285.956,76.165 285.956,76.165 C284.513,83.731 282.666,82.895 282.666,82.895 C279.152,85.738 278.411,98.198 278.411,98.198 C279.824,105.073 273.713,114.628 291.383,99.289 C295.583,95.077 316.757,71.239 320.127,61.859 C320.127,61.859 323.657,52.72 328.696,63.532 Z M210.78,110.788 C210.78,110.788 208.432,109.229 208.583,102.195 C208.583,102.195 209.239,89.979 217.538,80.196 C217.538,80.196 219.848,77.267 221.733,76.907 C222.363,76.787 223.381,77.709 223.857,81.443 C223.973,82.36 221.334,82.552 222.296,85.473 C222.296,85.473 226.712,96.644 236.012,91.605 C235.622,93.896 235.209,96.203 234.768,98.524 C229.921,105.248 219.733,116.883 210.78,110.788 Z M250.335,6.047 C250.335,6.047 240.151,-6.797 241.873,8.012 C241.873,8.012 243.261,38.901 238.164,77.34 C237.585,75.849 236.796,74.318 235.718,72.817 C235.718,72.817 226.841,60.982 216.884,64.261 C216.884,64.261 204.182,68.26 196.825,87.436 C196.825,87.436 191.634,100.686 193.11,110.668 C193.11,110.668 192.619,136.881 224.526,118.357 C224.526,118.357 227.902,116.304 231.861,112.284 C231.095,115.559 229.847,117.704 229.72,121.071 C229.72,121.071 228.58,127.991 231.745,129.73 C232.954,130.399 234.254,129.478 237.065,122.747 C237.065,122.747 259.751,64.548 260.963,40.522 C260.963,40.522 268.934,28.595 250.335,6.047 L250.335,6.047 Z" id="Fill-2" fill="#181916"></path>
            <path d="M463.635,130.594 C469.888,130.978 476.922,131.064 486.669,132.008 C491.73,132.497 499.542,132.497 500.649,135.782 C501.663,138.798 497.85,141.894 491.043,143.215 C487.591,143.884 485.419,144.45 482.304,144.341 C478.624,144.212 470.743,144.5 470.518,140.252 C470.348,137.6 465.199,137.623 461.761,137.487 C454.88,137.216 455.584,135.269 457.084,132.925 C457.979,131.487 459.86,130.558 463.635,130.594" id="Fill-3" fill="#292D71"></path>
            <path d="M675.01,26.453 C675.01,24.462 673.382,22.832 671.39,22.833 L557.947,22.854 C555.956,22.854 554.327,24.484 554.327,26.476 L554.348,139.917 C554.348,141.91 555.977,143.54 557.969,143.54 L671.412,143.517 C673.403,143.517 675.032,141.888 675.032,139.898 L675.01,26.453" id="Fill-4" fill="#292D71"></path>
            <path d="M658.772,99.849 C656.964,95.564 656.459,90.079 656.158,85.609 C651.892,95.084 645.51,109.682 638.275,108.557 C633.96,107.887 633.652,100.402 634.67,93.163 C631.811,99.316 629.081,105.695 625.782,109.546 C625.782,109.546 625.537,109.864 625.01,110.47 C624.204,111.444 622.206,113.655 620.362,114.115 C620.228,114.152 620.011,114.195 619.799,114.215 C619.246,114.287 618.662,114.261 618.051,114.111 C616.594,113.652 615.238,112.211 614.056,109.486 C613.837,108.996 613.664,108.484 613.513,107.96 C613.356,107.232 613.235,106.524 613.149,105.835 C611.894,107.914 610.431,109.827 608.82,111.403 C603.559,116.552 597.88,119.721 591.181,121.628 C585.127,123.353 577.71,124.786 571.732,121.836 C565.671,118.84 564.608,111.798 567.302,105.835 C568.299,103.623 568.905,104.941 568.504,107.486 C568.357,108.42 568.205,109.315 568.175,110.261 C567.688,125.591 591.442,118.297 597.985,114.523 C602.842,111.718 604.772,109.615 607.154,107.209 C610.377,103.947 612.684,98.32 613.242,93.531 C614.586,82.057 600.296,82.145 593.558,82.43 C593.328,82.44 593.116,82.4 592.919,82.337 C592.154,84.423 591.348,86.492 590.514,88.54 C588.886,92.538 587.401,95.892 585.804,99.9 C584.464,103.248 582.354,107.572 580.313,110.437 C579.074,112.172 578.103,111.589 578.192,109.536 C578.343,105.914 580.294,101.917 581.644,98.673 C583.182,94.975 584.784,91.311 586.33,87.617 C589.391,80.328 592.348,72.909 594.109,65.072 C594.626,62.774 597.817,63.132 597.445,65.585 C597.021,68.379 596.409,71.116 595.67,73.812 C597.844,70.857 600.063,67.939 601.931,64.711 C603.807,61.466 607.903,52.721 602.809,50.056 C598.65,47.882 593.033,51.382 589.828,53.965 C586.287,56.817 582.36,60.526 579.44,65.208 C578.061,66.907 577.177,65.927 577.849,64.582 C580.453,59.35 585.291,54.256 589.674,50.963 C593.763,47.894 600.357,43.782 605.229,47.248 C610.765,51.19 608.645,59.38 606.004,64.565 C603.476,69.519 600.187,73.777 597.104,78.244 C603.696,78.205 611.699,79.132 615.407,85.283 C615.804,85.943 616.135,86.621 616.407,87.315 C618.047,82.89 619.838,79.213 621.138,76.361 C626.063,65.534 628.662,60.852 635.064,51.514 C635.955,50.216 637.292,51.673 636.52,53.025 C627.512,68.75 621.598,80.784 617.896,95.544 C617.596,96.776 617.342,97.992 617.25,98.673 C617.254,98.68 617.22,98.782 617.228,98.789 C616.864,101.497 616.682,105.202 617.9,107.463 C618.152,107.93 618.426,108.258 618.716,108.484 C618.723,108.486 618.733,108.5 618.733,108.5 C620.325,109.702 622.322,107.54 623.341,106.166 C625.976,102.861 628.273,99.104 630.278,95.07 C633.567,88.459 636.986,81.383 639.093,73.889 C639.746,71.549 642.534,72.048 642.406,74.734 C642.199,79.063 641.03,83.219 640.219,87.376 C639.658,90.25 636.049,107.517 641.689,102.158 C647.857,96.296 651.872,86.924 655.949,78.568 C656.686,77.06 658.692,77.325 658.939,79.297 C659.716,85.691 659.81,91.588 661.845,97.67 C662.77,100.436 659.899,102.527 658.772,99.849" id="Fill-5" fill="#555494"></path>
            <path d="M665.3,72.981 L665.3,93.609 C665.3,100.069 661.381,101.364 655.059,101.364 L642.836,101.364 C636.518,101.364 632.602,100.069 632.602,93.609 L632.602,72.981 L637.787,72.981 L637.787,93.572 C637.787,95.544 638.133,96.839 642.729,96.839 L655.171,96.839 C659.771,96.839 660.116,95.544 660.116,93.572 L660.116,72.981 L665.3,72.981 Z M607.543,96.541 L628.104,96.541 L628.104,101.07 L602.352,101.07 L602.352,72.981 L607.543,72.981 L607.543,96.541 Z M569.106,88.886 C570.572,88.886 586.709,88.886 586.709,88.886 C590.113,88.886 590.997,89.503 590.997,91.893 L590.997,93.796 C590.997,95.491 590.371,96.541 587.259,96.541 C587.259,96.541 570.573,96.541 569.106,96.541 C569.106,95.332 569.106,90.093 569.106,88.886 Z M589.969,81.904 C589.969,83.045 589.611,84.359 586.817,84.359 C586.817,84.359 570.572,84.359 569.106,84.359 C569.106,83.183 569.106,78.682 569.106,77.504 C570.573,77.504 587.004,77.504 587.004,77.504 C587.499,77.504 589.969,77.6 589.969,79.489 L589.969,81.904 Z M592.843,86.004 C594.288,85.148 595.157,83.774 595.157,81.94 L595.157,79.672 C595.157,77.173 594.139,72.981 587.332,72.981 L563.92,72.981 L563.92,101.07 L587.699,101.07 C592.853,101.07 596.182,98.544 596.182,94.639 L596.182,91.491 C596.182,88.684 595.053,86.859 592.843,86.004 L592.843,86.004 Z" id="Fill-6" fill="#FFFFFE"></path>
        </g>
    </g>
</svg>