<?xml version="1.0" encoding="utf-8"?>
<!-- Generator: Adobe Illustrator 23.0.0, SVG Export Plug-In . SVG Version: 6.00 Build 0)  -->
<svg version="1.1" id="Layer_1" xmlns="http://www.w3.org/2000/svg" xmlns:xlink="http://www.w3.org/1999/xlink" x="0px" y="0px"
	 viewBox="0 0 258.1 64" style="enable-background:new 0 0 258.1 64;" xml:space="preserve">
<style type="text/css">
	.st0{fill:#FFFFFF;stroke:#2D6576;stroke-miterlimit:10;}
	.st1{fill:#2D6576;}
	.st2{fill:#68BE58;}
	.st3{fill:#FFFFFF;}
	.st4{fill:#2C6476;}
	.st5{fill:#67BD58;}
</style>
<g>
	<g>
		<path class="st0" d="M252.24,63.5H5.86c-2.95,0-5.36-2.41-5.36-5.36V5.86c0-2.95,2.41-5.36,5.36-5.36h246.39
			c2.95,0,5.36,2.41,5.36,5.36v52.29C257.6,61.09,255.19,63.5,252.24,63.5z"/>
	</g>
	<path class="st1" d="M251.54,63.75H128.5V0.91h124.04c2.76,0,5,2.24,5,5v51.84C257.54,61.06,254.85,63.75,251.54,63.75z"/>
	<path class="st2" d="M252.4,63.06H128.82V32.71H257.4v25.35C257.4,60.82,255.16,63.06,252.4,63.06z"/>
	<g>
		<path class="st3" d="M144.96,12.92c-0.56-0.41-1.29-0.62-2.17-0.62c-0.36,0-0.71,0.04-1.05,0.11s-0.65,0.19-0.92,0.36
			c-0.27,0.17-0.48,0.39-0.64,0.67c-0.16,0.28-0.24,0.63-0.24,1.04c0,0.39,0.12,0.71,0.35,0.96s0.54,0.44,0.93,0.6
			c0.38,0.16,0.82,0.28,1.31,0.38c0.49,0.1,0.99,0.21,1.49,0.33s1,0.26,1.49,0.42c0.49,0.16,0.93,0.38,1.31,0.65
			c0.39,0.27,0.7,0.62,0.93,1.04c0.23,0.42,0.35,0.94,0.35,1.57c0,0.68-0.15,1.26-0.46,1.74c-0.3,0.48-0.69,0.88-1.17,1.18
			c-0.47,0.3-1.01,0.52-1.6,0.66c-0.59,0.14-1.17,0.21-1.76,0.21c-0.71,0-1.39-0.09-2.03-0.27c-0.64-0.18-1.2-0.45-1.68-0.81
			c-0.48-0.36-0.86-0.83-1.14-1.39c-0.28-0.56-0.42-1.23-0.42-2.01h1.61c0,0.54,0.1,1,0.31,1.38s0.48,0.71,0.82,0.96
			c0.34,0.25,0.73,0.43,1.19,0.55c0.45,0.12,0.92,0.18,1.39,0.18c0.38,0,0.77-0.04,1.15-0.11c0.39-0.07,0.73-0.19,1.04-0.37
			c0.31-0.17,0.56-0.41,0.75-0.71c0.19-0.3,0.29-0.68,0.29-1.14c0-0.44-0.12-0.8-0.35-1.07s-0.54-0.5-0.93-0.67
			c-0.39-0.17-0.82-0.31-1.31-0.42c-0.49-0.11-0.99-0.22-1.49-0.33c-0.51-0.11-1-0.24-1.49-0.39c-0.49-0.15-0.93-0.34-1.31-0.59
			s-0.7-0.56-0.93-0.95s-0.35-0.87-0.35-1.46c0-0.64,0.13-1.2,0.39-1.67c0.26-0.47,0.61-0.86,1.04-1.16
			c0.44-0.3,0.93-0.53,1.48-0.68c0.55-0.15,1.12-0.22,1.71-0.22c0.65,0,1.26,0.08,1.82,0.23c0.56,0.15,1.05,0.4,1.47,0.73
			c0.42,0.33,0.75,0.75,1,1.26s0.38,1.11,0.4,1.81h-1.61C145.85,14,145.52,13.34,144.96,12.92z"/>
		<path class="st3" d="M151.95,15.05c0.26-0.8,0.64-1.51,1.15-2.13c0.51-0.62,1.15-1.11,1.91-1.48s1.65-0.55,2.66-0.55
			s1.9,0.18,2.66,0.55s1.4,0.86,1.91,1.48c0.51,0.62,0.89,1.33,1.15,2.13s0.38,1.64,0.38,2.51c0,0.87-0.13,1.71-0.38,2.51
			s-0.64,1.51-1.15,2.13s-1.15,1.11-1.91,1.47s-1.65,0.54-2.66,0.54s-1.9-0.18-2.66-0.54s-1.4-0.85-1.91-1.47s-0.9-1.33-1.15-2.13
			s-0.38-1.64-0.38-2.51C151.57,16.69,151.7,15.85,151.95,15.05z M153.52,19.46c0.17,0.62,0.43,1.19,0.79,1.69s0.81,0.9,1.38,1.21
			c0.56,0.3,1.23,0.46,2,0.46s1.44-0.15,2-0.46c0.56-0.3,1.02-0.71,1.37-1.21c0.36-0.5,0.62-1.06,0.79-1.69
			c0.17-0.62,0.25-1.26,0.25-1.9c0-0.64-0.08-1.28-0.25-1.9c-0.17-0.62-0.43-1.19-0.79-1.69c-0.36-0.5-0.81-0.9-1.37-1.21
			c-0.56-0.3-1.23-0.46-2-0.46s-1.44,0.15-2,0.46c-0.56,0.3-1.02,0.71-1.38,1.21s-0.62,1.06-0.79,1.69
			c-0.17,0.62-0.25,1.26-0.25,1.9C153.27,18.2,153.35,18.83,153.52,19.46z"/>
		<path class="st3" d="M176.37,11.18v1.43h-6.68v4.05h5.86v1.43h-5.86v5.84h-1.7V11.18H176.37z"/>
		<path class="st3" d="M179.03,12.61v-1.43h10.19v1.43h-4.25v11.32h-1.7V12.61H179.03z"/>
		<path class="st3" d="M202.52,23.93l-2.91-10.71h-0.04l-2.95,10.71h-1.77l-3.27-12.75h1.73l2.5,10.6h0.04l2.86-10.6h1.84l2.82,10.6
			h0.04l2.59-10.6h1.7l-3.41,12.75H202.52z"/>
		<path class="st3" d="M216.36,11.18l4.98,12.75h-1.88l-1.39-3.84h-5.39l-1.43,3.84h-1.73l4.96-12.75H216.36z M217.54,18.67
			l-2.12-5.95h-0.04l-2.16,5.95H217.54z"/>
		<path class="st3" d="M230.73,11.18c1.21,0,2.16,0.3,2.85,0.89c0.68,0.6,1.03,1.41,1.03,2.45c0,0.77-0.18,1.45-0.53,2.04
			s-0.91,0.98-1.69,1.2v0.04c0.37,0.07,0.67,0.19,0.9,0.36s0.42,0.37,0.55,0.6c0.14,0.23,0.24,0.49,0.3,0.78
			c0.06,0.29,0.12,0.58,0.15,0.89c0.02,0.31,0.04,0.62,0.05,0.95c0.01,0.32,0.04,0.64,0.09,0.95c0.05,0.31,0.12,0.6,0.21,0.88
			c0.09,0.28,0.22,0.53,0.4,0.74h-1.89c-0.12-0.13-0.2-0.31-0.24-0.54c-0.04-0.23-0.07-0.48-0.08-0.76
			c-0.01-0.28-0.03-0.58-0.04-0.9s-0.05-0.64-0.11-0.95c-0.05-0.31-0.11-0.6-0.18-0.88c-0.07-0.28-0.18-0.52-0.34-0.73
			c-0.15-0.21-0.36-0.38-0.61-0.5s-0.58-0.19-1-0.19h-4.14v5.45h-1.7V11.18H230.73z M231.09,16.97c0.36-0.06,0.67-0.18,0.94-0.35
			c0.27-0.17,0.48-0.41,0.64-0.7c0.16-0.29,0.24-0.67,0.24-1.13c0-0.64-0.18-1.17-0.54-1.57s-0.93-0.61-1.73-0.61h-4.21v4.45h3.54
			C230.36,17.06,230.73,17.03,231.09,16.97z"/>
		<path class="st3" d="M247.91,11.18v1.43h-7.11v4.05h6.62v1.43h-6.62v4.41h7.16v1.43h-8.86V11.18H247.91z"/>
	</g>
	<g>
		<path class="st3" d="M146.26,43.33c-0.56-0.41-1.29-0.62-2.17-0.62c-0.36,0-0.71,0.04-1.05,0.11s-0.65,0.19-0.92,0.36
			c-0.27,0.17-0.48,0.39-0.64,0.67c-0.16,0.28-0.24,0.63-0.24,1.04c0,0.39,0.12,0.71,0.35,0.96s0.54,0.44,0.93,0.6
			c0.38,0.16,0.82,0.28,1.31,0.38c0.49,0.1,0.99,0.21,1.49,0.33s1,0.26,1.49,0.42c0.49,0.16,0.93,0.38,1.31,0.65
			c0.39,0.27,0.7,0.62,0.93,1.04c0.23,0.42,0.35,0.94,0.35,1.57c0,0.68-0.15,1.26-0.46,1.74c-0.3,0.48-0.69,0.88-1.17,1.18
			c-0.47,0.3-1.01,0.52-1.6,0.66c-0.59,0.14-1.17,0.21-1.76,0.21c-0.71,0-1.39-0.09-2.03-0.27c-0.64-0.18-1.2-0.45-1.68-0.81
			c-0.48-0.36-0.86-0.83-1.14-1.39c-0.28-0.56-0.42-1.23-0.42-2.01h1.61c0,0.54,0.1,1,0.31,1.38s0.48,0.71,0.82,0.96
			c0.34,0.25,0.73,0.43,1.19,0.55c0.45,0.12,0.92,0.18,1.39,0.18c0.38,0,0.77-0.04,1.15-0.11c0.39-0.07,0.73-0.19,1.04-0.37
			c0.31-0.17,0.56-0.41,0.75-0.71c0.19-0.3,0.29-0.68,0.29-1.14c0-0.44-0.12-0.8-0.35-1.07s-0.54-0.5-0.93-0.67
			c-0.39-0.17-0.82-0.31-1.31-0.42c-0.49-0.11-0.99-0.22-1.49-0.33c-0.51-0.11-1-0.24-1.49-0.39c-0.49-0.15-0.93-0.34-1.31-0.59
			s-0.7-0.56-0.93-0.95s-0.35-0.87-0.35-1.46c0-0.64,0.13-1.2,0.39-1.67c0.26-0.47,0.61-0.86,1.04-1.16
			c0.44-0.3,0.93-0.53,1.48-0.68c0.55-0.15,1.12-0.22,1.71-0.22c0.65,0,1.26,0.08,1.82,0.23c0.56,0.15,1.05,0.4,1.47,0.73
			c0.42,0.33,0.75,0.75,1,1.26s0.38,1.11,0.4,1.81h-1.61C147.16,44.4,146.82,43.74,146.26,43.33z"/>
		<path class="st3" d="M152.28,45.45c0.26-0.8,0.64-1.51,1.15-2.13c0.51-0.62,1.15-1.11,1.91-1.48s1.65-0.55,2.66-0.55
			s1.9,0.18,2.66,0.55s1.4,0.86,1.91,1.48c0.51,0.62,0.9,1.33,1.15,2.13s0.38,1.64,0.38,2.51c0,0.87-0.13,1.71-0.38,2.51
			s-0.64,1.51-1.15,2.13s-1.15,1.11-1.91,1.47s-1.65,0.54-2.66,0.54s-1.9-0.18-2.66-0.54s-1.4-0.85-1.91-1.47s-0.89-1.33-1.15-2.13
			s-0.38-1.64-0.38-2.51C151.89,47.09,152.02,46.26,152.28,45.45z M153.84,49.86c0.17,0.62,0.43,1.19,0.79,1.69
			c0.36,0.5,0.81,0.9,1.37,1.21c0.56,0.3,1.23,0.46,2,0.46s1.44-0.15,2-0.46s1.02-0.71,1.38-1.21s0.62-1.06,0.79-1.69
			c0.17-0.62,0.25-1.26,0.25-1.9c0-0.64-0.08-1.28-0.25-1.9c-0.17-0.62-0.43-1.19-0.79-1.69s-0.82-0.9-1.38-1.21s-1.23-0.46-2-0.46
			s-1.44,0.15-2,0.46c-0.56,0.3-1.02,0.71-1.37,1.21c-0.36,0.5-0.62,1.06-0.79,1.69c-0.17,0.62-0.25,1.26-0.25,1.9
			C153.59,48.61,153.67,49.24,153.84,49.86z"/>
		<path class="st3" d="M169.03,41.59v11.32h6.75v1.43h-8.44V41.59H169.03z"/>
		<path class="st3" d="M187.29,53.4c-0.87,0.82-2.11,1.22-3.71,1.22c-1.64,0-2.93-0.39-3.85-1.17s-1.38-2.02-1.38-3.72v-8.14h1.7
			v8.14c0,1.14,0.3,2.01,0.91,2.6c0.61,0.59,1.48,0.88,2.62,0.88c1.08,0,1.91-0.29,2.47-0.88c0.56-0.59,0.85-1.46,0.85-2.6v-8.14
			h1.7v8.14C188.6,51.36,188.16,52.58,187.29,53.4z"/>
		<path class="st3" d="M191.12,43.02v-1.43h10.19v1.43h-4.25v11.32h-1.7V43.02H191.12z"/>
		<path class="st3" d="M205.65,41.59v12.75h-1.7V41.59H205.65z"/>
		<path class="st3" d="M209.33,45.45c0.26-0.8,0.64-1.51,1.15-2.13c0.51-0.62,1.15-1.11,1.91-1.48s1.65-0.55,2.66-0.55
			s1.9,0.18,2.66,0.55s1.4,0.86,1.91,1.48c0.51,0.62,0.89,1.33,1.15,2.13s0.38,1.64,0.38,2.51c0,0.87-0.13,1.71-0.38,2.51
			s-0.64,1.51-1.15,2.13s-1.15,1.11-1.91,1.47s-1.65,0.54-2.66,0.54s-1.9-0.18-2.66-0.54s-1.4-0.85-1.91-1.47s-0.9-1.33-1.15-2.13
			s-0.38-1.64-0.38-2.51C208.95,47.09,209.08,46.26,209.33,45.45z M210.9,49.86c0.17,0.62,0.43,1.19,0.79,1.69s0.81,0.9,1.38,1.21
			c0.56,0.3,1.23,0.46,2,0.46s1.44-0.15,2-0.46c0.56-0.3,1.02-0.71,1.37-1.21c0.36-0.5,0.62-1.06,0.79-1.69
			c0.17-0.62,0.25-1.26,0.25-1.9c0-0.64-0.08-1.28-0.25-1.9c-0.17-0.62-0.43-1.19-0.79-1.69c-0.36-0.5-0.81-0.9-1.37-1.21
			c-0.56-0.3-1.23-0.46-2-0.46s-1.44,0.15-2,0.46c-0.56,0.3-1.02,0.71-1.38,1.21s-0.62,1.06-0.79,1.69
			c-0.17,0.62-0.25,1.26-0.25,1.9C210.65,48.61,210.73,49.24,210.9,49.86z"/>
		<path class="st3" d="M226.18,41.59l6.71,10.34h0.04V41.59h1.61v12.75h-1.86l-6.66-10.23h-0.04v10.23h-1.61V41.59H226.18z"/>
		<path class="st3" d="M244.83,43.33c-0.56-0.41-1.29-0.62-2.17-0.62c-0.36,0-0.71,0.04-1.05,0.11s-0.65,0.19-0.92,0.36
			c-0.27,0.17-0.48,0.39-0.64,0.67c-0.16,0.28-0.24,0.63-0.24,1.04c0,0.39,0.12,0.71,0.35,0.96s0.54,0.44,0.93,0.6
			c0.38,0.16,0.82,0.28,1.31,0.38c0.49,0.1,0.99,0.21,1.49,0.33s1,0.26,1.49,0.42c0.49,0.16,0.93,0.38,1.31,0.65
			c0.39,0.27,0.7,0.62,0.93,1.04c0.23,0.42,0.35,0.94,0.35,1.57c0,0.68-0.15,1.26-0.46,1.74c-0.3,0.48-0.69,0.88-1.17,1.18
			c-0.47,0.3-1.01,0.52-1.6,0.66c-0.59,0.14-1.17,0.21-1.76,0.21c-0.71,0-1.39-0.09-2.03-0.27c-0.64-0.18-1.2-0.45-1.68-0.81
			c-0.48-0.36-0.86-0.83-1.14-1.39c-0.28-0.56-0.42-1.23-0.42-2.01h1.61c0,0.54,0.1,1,0.31,1.38s0.48,0.71,0.82,0.96
			c0.34,0.25,0.73,0.43,1.19,0.55c0.45,0.12,0.92,0.18,1.39,0.18c0.38,0,0.77-0.04,1.15-0.11c0.39-0.07,0.73-0.19,1.04-0.37
			c0.31-0.17,0.56-0.41,0.75-0.71c0.19-0.3,0.29-0.68,0.29-1.14c0-0.44-0.12-0.8-0.35-1.07s-0.54-0.5-0.93-0.67
			c-0.39-0.17-0.82-0.31-1.31-0.42c-0.49-0.11-0.99-0.22-1.49-0.33c-0.51-0.11-1-0.24-1.49-0.39c-0.49-0.15-0.93-0.34-1.31-0.59
			s-0.7-0.56-0.93-0.95s-0.35-0.87-0.35-1.46c0-0.64,0.13-1.2,0.39-1.67c0.26-0.47,0.61-0.86,1.04-1.16
			c0.44-0.3,0.93-0.53,1.48-0.68c0.55-0.15,1.12-0.22,1.71-0.22c0.65,0,1.26,0.08,1.82,0.23c0.56,0.15,1.05,0.4,1.47,0.73
			c0.42,0.33,0.75,0.75,1,1.26s0.38,1.11,0.4,1.81h-1.61C245.72,44.4,245.39,43.74,244.83,43.33z"/>
	</g>
	<polygon class="st4" points="10.84,10.76 10.84,18.64 23.62,18.64 23.62,53.4 32.99,53.4 32.99,18.64 45.77,18.64 45.77,10.76 	"/>
	<path class="st5" d="M50.83,21c0.64-2.05,1.59-3.84,2.87-5.37c1.27-1.53,2.88-2.73,4.81-3.58c1.93-0.86,4.15-1.28,6.66-1.28
		c1.91,0,3.73,0.3,5.46,0.9c1.73,0.6,3.26,1.45,4.57,2.57c1.31,1.12,2.36,2.49,3.13,4.12c0.78,1.63,1.16,3.46,1.16,5.49
		c0,2.11-0.34,3.92-1.02,5.44c-0.68,1.51-1.57,2.86-2.69,4.03c-1.11,1.17-2.38,2.24-3.79,3.19c-1.41,0.96-2.84,1.9-4.27,2.84
		c-1.43,0.93-2.83,1.94-4.18,3.01c-1.35,1.07-2.55,2.33-3.58,3.76h19.76v7.28H49.04c0-2.43,0.35-4.54,1.04-6.33
		c0.7-1.79,1.64-3.39,2.84-4.81c1.2-1.41,2.6-2.72,4.21-3.91c1.61-1.19,3.31-2.41,5.11-3.64c0.92-0.64,1.89-1.29,2.93-1.94
		c1.03-0.66,1.98-1.38,2.84-2.18c0.86-0.8,1.57-1.69,2.15-2.69c0.58-0.99,0.86-2.13,0.86-3.4c0-2.03-0.59-3.61-1.76-4.75
		c-1.18-1.13-2.68-1.7-4.51-1.7c-1.23,0-2.28,0.29-3.13,0.86c-0.86,0.58-1.54,1.33-2.06,2.27c-0.52,0.94-0.89,1.97-1.1,3.11
		c-0.22,1.13-0.33,2.26-0.33,3.37h-8.12C49.91,25.27,50.19,23.05,50.83,21"/>
	<path class="st4" d="M93.07,42.44c0.49,0.95,1.15,1.72,1.97,2.31c0.82,0.59,1.78,1.03,2.88,1.31c1.1,0.29,2.25,0.43,3.42,0.43
		c0.8,0,1.66-0.07,2.57-0.2c0.91-0.13,1.77-0.39,2.57-0.77c0.8-0.38,1.46-0.9,2-1.57c0.53-0.67,0.8-1.51,0.8-2.54
		c0-1.1-0.35-2-1.06-2.68c-0.7-0.69-1.63-1.26-2.77-1.71c-1.14-0.46-2.44-0.86-3.88-1.2c-1.45-0.34-2.91-0.72-4.39-1.14
		c-1.52-0.38-3.01-0.84-4.45-1.4c-1.45-0.55-2.74-1.26-3.88-2.14c-1.14-0.87-2.06-1.97-2.77-3.28c-0.7-1.31-1.06-2.9-1.06-4.77
		c0-2.09,0.45-3.91,1.34-5.45c0.89-1.54,2.06-2.83,3.51-3.85c1.45-1.03,3.08-1.79,4.91-2.28c1.83-0.49,3.65-0.74,5.48-0.74
		c2.13,0,4.18,0.24,6.14,0.71c1.96,0.48,3.7,1.25,5.22,2.31c1.52,1.07,2.73,2.43,3.62,4.08c0.89,1.66,1.34,3.66,1.34,6.02h-8.67
		c-0.08-1.22-0.33-2.23-0.77-3.03c-0.44-0.8-1.02-1.42-1.74-1.88c-0.72-0.46-1.55-0.78-2.48-0.97c-0.93-0.19-1.95-0.29-3.05-0.29
		c-0.72,0-1.45,0.07-2.17,0.23c-0.72,0.15-1.38,0.42-1.97,0.8c-0.59,0.38-1.07,0.86-1.46,1.43c-0.38,0.57-0.57,1.29-0.57,2.17
		c0,0.8,0.15,1.45,0.46,1.94c0.3,0.5,0.9,0.95,1.8,1.37c0.89,0.42,2.13,0.84,3.71,1.26c1.58,0.42,3.64,0.95,6.19,1.6
		c0.76,0.15,1.82,0.43,3.17,0.83c1.35,0.4,2.69,1.04,4.02,1.91c1.33,0.87,2.48,2.04,3.45,3.51c0.97,1.46,1.46,3.34,1.46,5.62
		c0,1.86-0.36,3.59-1.08,5.19c-0.73,1.6-1.8,2.98-3.22,4.14c-1.43,1.16-3.2,2.07-5.31,2.71c-2.11,0.65-4.56,0.97-7.33,0.97
		c-2.25,0-4.42-0.28-6.54-0.83c-2.11-0.55-3.98-1.42-5.59-2.6c-1.62-1.18-2.9-2.68-3.85-4.51c-0.95-1.83-1.41-4-1.37-6.51h8.67
		C92.33,40.33,92.58,41.49,93.07,42.44"/>
	<g>
		<g>
			<g>
				<path class="st1" d="M115.88,11.05h2.87v0.54h-1.13v3.01H117v-3.01h-1.12V11.05z"/>
				<path class="st1" d="M119.15,11.05h0.87l0.98,2.77h0.01l0.95-2.77h0.86v3.54h-0.59v-2.73h-0.01l-0.98,2.73h-0.51l-0.98-2.73
					h-0.01v2.73h-0.59V11.05z"/>
			</g>
		</g>
	</g>
</g>
</svg>
