<?xml version="1.0" encoding="UTF-8"?>
<!DOCTYPE svg PUBLIC "-//W3C//DTD SVG 1.1//EN" "http://www.w3.org/Graphics/SVG/1.1/DTD/svg11.dtd">
<!-- Creator: CorelDRAW 2018 (64-Bit) -->
<svg xmlns="http://www.w3.org/2000/svg" xml:space="preserve" width="6.0388in" height="0.837787in" version="1.1" style="shape-rendering:geometricPrecision; text-rendering:geometricPrecision; image-rendering:optimizeQuality; fill-rule:evenodd; clip-rule:evenodd"
viewBox="0 0 6299.23 873.92"
 xmlns:xlink="http://www.w3.org/1999/xlink">
 <defs>
  <style type="text/css">
   <![CDATA[
    .fil1 {fill:#FEFEFE}
    .fil0 {fill:#FEFEFE;fill-rule:nonzero}
   ]]>
  </style>
 </defs>
 <g id="Layer_x0020_1">
  <metadata id="CorelCorpID_0Corel-Layer"/>
  <g id="_2232622985296">
   <path class="fil0" d="M1425.4 248.98l0 77.19 -151.25 0 0 425.94 -93.54 0 0 -425.94 -151.95 0 0 -77.19 396.73 0zm-1.04 503.48l0 -356.75 50.42 0c8.81,0 14.95,1.62 18.43,4.87 3.48,3.25 5.79,8.81 6.95,16.69l5.22 43.12c12.75,-22.14 27.7,-39.64 44.85,-52.39 17.15,-12.87 36.39,-19.24 57.72,-19.24 17.62,0 32.22,4.17 43.81,12.52l-11.13 64.32c-0.7,4.17 -2.21,7.07 -4.52,8.81 -2.32,1.74 -5.45,2.67 -9.39,2.67 -3.48,0 -8.23,-0.81 -14.25,-2.44 -6.03,-1.62 -14.02,-2.43 -23.99,-2.43 -17.85,0 -33.15,4.87 -45.9,14.72 -12.75,9.85 -23.53,24.34 -32.34,43.35l0 222.19 -85.89 0zm375.53 -356.75l0 356.75 -85.88 0 0 -356.75 85.88 0zm12.87 -104.2c0,7.54 -1.51,14.49 -4.52,20.98 -3.01,6.49 -6.95,12.17 -11.94,17.15 -4.98,4.87 -10.9,8.69 -17.61,11.59 -6.72,2.9 -13.91,4.4 -21.56,4.4 -7.42,0 -14.37,-1.51 -20.98,-4.4 -6.61,-2.9 -12.4,-6.72 -17.27,-11.59 -4.87,-4.99 -8.69,-10.67 -11.59,-17.15 -2.9,-6.49 -4.41,-13.45 -4.41,-20.98 0,-7.65 1.51,-14.83 4.41,-21.56 2.9,-6.72 6.72,-12.52 11.59,-17.5 4.87,-4.87 10.66,-8.69 17.27,-11.59 6.61,-2.9 13.56,-4.4 20.98,-4.4 7.65,0 14.84,1.51 21.56,4.4 6.72,2.9 12.63,6.72 17.61,11.59 4.99,4.98 8.92,10.78 11.94,17.5 3.01,6.72 4.52,13.91 4.52,21.56zm335.19 460.95c-11.13,0 -18.43,-5.1 -21.91,-15.42l-6.95 -33.84c-7.42,8.23 -15.18,15.76 -23.3,22.37 -8.11,6.72 -16.81,12.4 -26.19,17.27 -9.39,4.87 -19.47,8.57 -30.25,11.24 -10.78,2.67 -22.48,3.94 -35,3.94 -19.47,0 -37.32,-4.06 -53.55,-12.17 -16.23,-8.11 -30.13,-19.93 -41.84,-35.35 -11.7,-15.42 -20.75,-34.42 -27.12,-57.14 -6.37,-22.71 -9.62,-48.68 -9.62,-77.89 0,-26.43 3.59,-51 10.78,-73.72 7.19,-22.71 17.5,-42.42 30.95,-59.11 13.44,-16.69 29.55,-29.79 48.33,-39.17 18.78,-9.39 39.87,-14.02 63.29,-14.02 19.93,0 36.97,3.24 51.11,9.62 14.14,6.49 26.77,15.06 37.9,25.84l0 -189.15 85.89 0 0 516.69 -52.51 0zm-114.39 -62.59c17.85,0 33.03,-3.71 45.55,-11.01 12.52,-7.3 24.34,-17.62 35.47,-31.06l0 -157.51c-9.73,-12.86 -20.28,-21.91 -31.76,-27.24 -11.47,-5.22 -23.87,-7.88 -37.09,-7.88 -12.98,0 -24.69,2.44 -35.23,7.3 -10.55,4.87 -19.47,12.17 -26.78,22.02 -7.3,9.85 -12.98,22.37 -16.92,37.55 -3.94,15.07 -5.91,33.04 -5.91,53.55 0,20.86 1.74,38.48 5.1,52.97 3.36,14.48 8.12,26.31 14.37,35.46 6.26,9.16 13.91,15.77 22.95,19.82 9.04,4.06 19.13,6.03 30.25,6.03zm407.17 -299.72c22.48,0 43.23,3.59 62.12,10.78 18.89,7.3 35.12,17.73 48.79,31.64 13.68,13.79 24.34,30.83 31.99,50.88 7.65,20.17 11.47,43.12 11.47,68.97 0,6.49 -0.23,11.93 -0.81,16.23 -0.58,4.29 -1.62,7.65 -3.13,10.08 -1.51,2.44 -3.59,4.17 -6.14,5.22 -2.55,1.04 -5.79,1.62 -9.73,1.62l-220.45 0c2.55,36.39 12.4,63.05 29.56,80.09 17.15,17.04 39.87,25.61 68.15,25.61 13.91,0 25.96,-1.62 36.05,-4.87 10.09,-3.24 18.9,-6.72 26.43,-10.66 7.53,-3.94 14.14,-7.54 19.82,-10.78 5.68,-3.13 11.13,-4.75 16.46,-4.75 3.47,0 6.49,0.69 9.04,2.09 2.55,1.39 4.75,3.36 6.61,5.91l25.04 31.41c-9.51,11.13 -20.17,20.4 -31.99,27.93 -11.82,7.54 -24.11,13.56 -36.97,18.08 -12.86,4.52 -25.96,7.77 -39.29,9.62 -13.33,1.86 -26.31,2.78 -38.83,2.78 -24.81,0 -47.87,-4.17 -69.2,-12.4 -21.33,-8.23 -39.87,-20.4 -55.63,-36.51 -15.76,-16.11 -28.16,-36.05 -37.2,-59.81 -9.04,-23.87 -13.56,-51.34 -13.56,-82.75 0,-24.34 3.94,-47.17 11.82,-68.73 7.88,-21.44 19.24,-40.1 33.96,-55.98 14.72,-15.88 32.68,-28.51 53.89,-37.79 21.21,-9.27 45.08,-13.91 71.75,-13.91zm1.74 61.89c-25.04,0 -44.62,7.07 -58.76,21.21 -14.14,14.14 -23.18,34.19 -27.12,60.15l161.34 0c0,-11.13 -1.51,-21.67 -4.52,-31.52 -3.01,-9.85 -7.65,-18.43 -13.91,-25.85 -6.26,-7.42 -14.14,-13.33 -23.64,-17.62 -9.5,-4.29 -20.63,-6.37 -33.38,-6.37zm222.53 300.42l0 -356.75 52.51 0c11.13,0 18.43,5.22 21.91,15.65l5.91 28.16c7.19,-7.42 14.83,-14.14 22.83,-20.17 8,-6.02 16.46,-11.24 25.38,-15.65 8.92,-4.4 18.43,-7.76 28.63,-10.08 10.2,-2.32 21.33,-3.47 33.38,-3.47 19.47,0 36.74,3.24 51.81,9.85 15.06,6.61 27.7,15.88 37.78,27.82 10.08,11.94 17.73,26.19 22.95,42.77 5.22,16.57 7.77,34.89 7.77,54.82l0 227.05 -85.89 0 0 -227.05c0,-21.79 -4.98,-38.71 -15.07,-50.65 -10.08,-11.94 -25.27,-17.85 -45.43,-17.85 -14.83,0 -28.74,3.36 -41.73,10.09 -12.98,6.72 -25.27,15.88 -36.85,27.47l0 258 -85.89 0zm512.52 5.56c-30.83,0 -54.59,-8.81 -71.28,-26.31 -16.69,-17.5 -25.04,-41.73 -25.04,-72.55l0 -199.47 -36.16 0c-4.64,0 -8.58,-1.51 -11.94,-4.52 -3.36,-3.01 -5.1,-7.53 -5.1,-13.56l0 -34.07 57.37 -9.39 18.08 -97.01c0.92,-4.64 3.13,-8.23 6.49,-10.78 3.36,-2.55 7.54,-3.82 12.63,-3.82l44.51 0 0 111.96 93.88 0 0 61.2 -93.88 0 0 193.32c0,11.13 2.78,19.82 8.35,26.08 5.56,6.26 12.98,9.39 22.25,9.39 5.33,0 9.85,-0.69 13.45,-1.97 3.59,-1.28 6.72,-2.55 9.39,-3.94 2.67,-1.39 4.99,-2.78 7.07,-4.06 2.09,-1.27 4.17,-1.85 6.26,-1.85 2.55,0 4.63,0.69 6.26,1.97 1.62,1.28 3.36,3.13 5.22,5.68l25.73 42.07c-12.52,10.43 -26.89,18.31 -43.12,23.64 -16.23,5.33 -33.03,8 -50.42,8zm560.5 -416.56c-2.55,5.1 -5.45,8.69 -8.81,10.78 -3.36,2.09 -7.42,3.13 -12.05,3.13 -4.64,0 -9.85,-1.86 -15.65,-5.45 -5.79,-3.59 -12.63,-7.53 -20.51,-11.93 -7.89,-4.41 -17.04,-8.46 -27.59,-12.06 -10.55,-3.59 -23.07,-5.33 -37.44,-5.33 -12.98,0 -24.23,1.51 -33.84,4.64 -9.62,3.13 -17.73,7.54 -24.34,13.1 -6.6,5.56 -11.59,12.17 -14.83,19.93 -3.24,7.77 -4.87,16.35 -4.87,25.62 0,11.7 3.36,21.56 9.97,29.44 6.6,7.88 15.3,14.6 26.19,20.17 10.9,5.56 23.3,10.55 37.2,14.95 13.91,4.41 28.16,9.16 42.65,14.14 14.49,4.87 28.63,10.67 42.54,17.27 13.91,6.61 26.31,14.95 37.2,25.04 10.9,10.09 19.7,22.49 26.31,36.97 6.61,14.6 9.85,32.34 9.85,53.2 0,22.72 -3.82,43.93 -11.59,63.75 -7.77,19.82 -19.13,37.09 -34.07,51.81 -14.95,14.72 -33.27,26.31 -54.82,34.77 -21.56,8.46 -46.25,12.64 -74.06,12.64 -16,0 -31.76,-1.62 -47.29,-4.75 -15.53,-3.13 -30.37,-7.54 -44.62,-13.33 -14.25,-5.79 -27.58,-12.75 -39.98,-20.86 -12.4,-8.12 -23.53,-17.15 -33.27,-27.12l27.12 -44.85c2.55,-3.24 5.68,-5.91 9.27,-8.12 3.59,-2.2 7.53,-3.36 11.94,-3.36 5.79,0 12.05,2.44 18.78,7.19 6.72,4.75 14.72,9.97 23.87,15.76 9.16,5.79 19.94,11.13 32.34,15.88 12.4,4.76 27.24,7.07 44.62,7.07 26.66,0 47.29,-6.37 61.89,-19.01 14.6,-12.64 21.91,-30.71 21.91,-54.36 0,-13.21 -3.25,-23.99 -9.85,-32.34 -6.61,-8.35 -15.42,-15.41 -26.31,-21.09 -10.9,-5.68 -23.29,-10.43 -37.2,-14.37 -13.91,-3.94 -28.05,-8.23 -42.42,-12.86 -14.37,-4.64 -28.51,-10.2 -42.42,-16.69 -13.91,-6.49 -26.31,-14.95 -37.2,-25.38 -10.9,-10.43 -19.59,-23.53 -26.19,-39.17 -6.61,-15.65 -9.97,-34.89 -9.97,-57.84 0,-18.31 3.71,-36.16 11.01,-53.54 7.3,-17.39 17.96,-32.8 31.99,-46.25 14.02,-13.45 31.18,-24.23 51.58,-32.34 20.4,-8.12 43.7,-12.17 69.89,-12.17 29.67,0 57.02,4.63 82.06,14.02 25.04,9.27 46.36,22.37 63.98,39.18l-22.95 44.16zm251.04 49.03c26.66,0 50.88,4.29 72.55,12.87 21.68,8.57 40.1,20.75 55.4,36.51 15.3,15.76 27.12,35 35.47,57.72 8.35,22.72 12.52,48.1 12.52,76.15 0,28.28 -4.17,53.78 -12.52,76.5 -8.35,22.72 -20.16,42.07 -35.47,58.07 -15.3,16 -33.73,28.28 -55.4,36.86 -21.68,8.57 -45.9,12.87 -72.55,12.87 -26.66,0 -50.88,-4.29 -72.67,-12.87 -21.79,-8.57 -40.34,-20.86 -55.75,-36.86 -15.42,-15.99 -27.36,-35.35 -35.82,-58.07 -8.46,-22.71 -12.75,-48.21 -12.75,-76.5 0,-28.05 4.29,-53.43 12.75,-76.15 8.46,-22.71 20.4,-41.96 35.82,-57.72 15.41,-15.76 33.96,-27.93 55.75,-36.51 21.79,-8.58 46.01,-12.87 72.67,-12.87zm0 301.81c29.67,0 51.69,-9.97 65.95,-29.91 14.26,-20.05 21.33,-49.26 21.33,-87.85 0,-38.48 -7.07,-67.8 -21.33,-88.09 -14.25,-20.17 -36.28,-30.25 -65.95,-30.25 -30.14,0 -52.39,10.2 -66.76,30.48 -14.37,20.28 -21.56,49.61 -21.56,87.85 0,38.37 7.18,67.57 21.56,87.62 14.37,20.05 36.62,30.14 66.76,30.14zm334.49 -456.54l0 516.69 -85.88 0 0 -516.69 85.88 0zm175.59 159.94l0 226.47c0,21.68 5.1,38.6 15.18,50.53 10.08,11.94 25.15,17.85 45.32,17.85 14.83,0 28.74,-3.24 41.73,-9.73 12.98,-6.49 25.27,-15.53 36.85,-26.89l0 -258.23 85.89 0 0 356.75 -52.51 0c-11.13,0 -18.43,-5.22 -21.91,-15.65l-5.91 -28.51c-7.42,7.42 -15.07,14.14 -22.95,20.28 -7.88,6.14 -16.23,11.36 -25.15,15.65 -8.92,4.29 -18.55,7.65 -28.86,10.09 -10.31,2.43 -21.44,3.71 -33.26,3.71 -19.47,0 -36.63,-3.36 -51.58,-9.97 -14.95,-6.61 -27.59,-15.88 -37.79,-27.93 -10.2,-12.05 -17.85,-26.43 -23.06,-43 -5.22,-16.58 -7.88,-34.77 -7.88,-54.71l0 -226.71 85.89 0zm433.94 362.31c-30.83,0 -54.59,-8.81 -71.28,-26.31 -16.69,-17.5 -25.04,-41.73 -25.04,-72.55l0 -199.47 -36.16 0c-4.64,0 -8.58,-1.51 -11.94,-4.52 -3.36,-3.01 -5.1,-7.53 -5.1,-13.56l0 -34.07 57.37 -9.39 18.08 -97.01c0.92,-4.64 3.13,-8.23 6.49,-10.78 3.36,-2.55 7.54,-3.82 12.63,-3.82l44.51 0 0 111.96 93.88 0 0 61.2 -93.88 0 0 193.32c0,11.13 2.78,19.82 8.35,26.08 5.56,6.26 12.98,9.39 22.25,9.39 5.33,0 9.85,-0.69 13.45,-1.97 3.59,-1.28 6.72,-2.55 9.39,-3.94 2.67,-1.39 4.99,-2.78 7.07,-4.06 2.09,-1.27 4.17,-1.85 6.26,-1.85 2.55,0 4.63,0.69 6.26,1.97 1.62,1.28 3.36,3.13 5.22,5.68l25.73 42.07c-12.52,10.43 -26.89,18.31 -43.12,23.64 -16.23,5.33 -33.03,8 -50.42,8zm243.39 -362.31l0 356.75 -85.88 0 0 -356.75 85.88 0zm12.87 -104.2c0,7.54 -1.51,14.49 -4.52,20.98 -3.01,6.49 -6.95,12.17 -11.94,17.15 -4.98,4.87 -10.9,8.69 -17.61,11.59 -6.72,2.9 -13.91,4.4 -21.56,4.4 -7.42,0 -14.37,-1.51 -20.98,-4.4 -6.61,-2.9 -12.4,-6.72 -17.27,-11.59 -4.87,-4.99 -8.69,-10.67 -11.59,-17.15 -2.9,-6.49 -4.41,-13.45 -4.41,-20.98 0,-7.65 1.51,-14.83 4.41,-21.56 2.9,-6.72 6.72,-12.52 11.59,-17.5 4.87,-4.87 10.66,-8.69 17.27,-11.59 6.61,-2.9 13.56,-4.4 20.98,-4.4 7.65,0 14.84,1.51 21.56,4.4 6.72,2.9 12.63,6.72 17.61,11.59 4.99,4.98 8.92,10.78 11.94,17.5 3.01,6.72 4.52,13.91 4.52,21.56zm236.44 98.98c26.66,0 50.88,4.29 72.55,12.87 21.68,8.57 40.1,20.75 55.4,36.51 15.3,15.76 27.12,35 35.47,57.72 8.35,22.72 12.52,48.1 12.52,76.15 0,28.28 -4.17,53.78 -12.52,76.5 -8.35,22.72 -20.16,42.07 -35.47,58.07 -15.3,16 -33.73,28.28 -55.4,36.86 -21.68,8.57 -45.9,12.87 -72.55,12.87 -26.66,0 -50.88,-4.29 -72.67,-12.87 -21.79,-8.57 -40.34,-20.86 -55.75,-36.86 -15.42,-15.99 -27.36,-35.35 -35.82,-58.07 -8.46,-22.71 -12.75,-48.21 -12.75,-76.5 0,-28.05 4.29,-53.43 12.75,-76.15 8.46,-22.71 20.4,-41.96 35.82,-57.72 15.41,-15.76 33.96,-27.93 55.75,-36.51 21.79,-8.58 46.01,-12.87 72.67,-12.87zm0 301.81c29.67,0 51.69,-9.97 65.95,-29.91 14.26,-20.05 21.33,-49.26 21.33,-87.85 0,-38.48 -7.07,-67.8 -21.33,-88.09 -14.25,-20.17 -36.28,-30.25 -65.95,-30.25 -30.14,0 -52.39,10.2 -66.76,30.48 -14.37,20.28 -21.56,49.61 -21.56,87.85 0,38.37 7.18,67.57 21.56,87.62 14.37,20.05 36.62,30.14 66.76,30.14zm243.05 60.15l0 -356.75 52.51 0c11.13,0 18.43,5.22 21.91,15.65l5.91 28.16c7.19,-7.42 14.83,-14.14 22.83,-20.17 8,-6.02 16.46,-11.24 25.38,-15.65 8.92,-4.4 18.43,-7.76 28.63,-10.08 10.2,-2.32 21.33,-3.47 33.38,-3.47 19.47,0 36.74,3.24 51.81,9.85 15.06,6.61 27.7,15.88 37.78,27.82 10.08,11.94 17.73,26.19 22.95,42.77 5.22,16.57 7.77,34.89 7.77,54.82l0 227.05 -85.89 0 0 -227.05c0,-21.79 -4.98,-38.71 -15.07,-50.65 -10.08,-11.94 -25.27,-17.85 -45.43,-17.85 -14.83,0 -28.74,3.36 -41.73,10.09 -12.98,6.72 -25.27,15.88 -36.85,27.47l0 258 -85.89 0zm607.1 -287.21c-2.32,3.71 -4.75,6.26 -7.3,7.77 -2.55,1.51 -5.79,2.32 -9.74,2.32 -4.17,0 -8.57,-1.16 -13.33,-3.48 -4.75,-2.32 -10.32,-4.98 -16.58,-7.88 -6.26,-2.9 -13.33,-5.45 -21.33,-7.77 -8,-2.32 -17.5,-3.48 -28.39,-3.48 -16.92,0 -30.25,3.59 -39.99,10.78 -9.74,7.19 -14.6,16.58 -14.6,28.16 0,7.65 2.55,14.02 7.53,19.24 4.99,5.22 11.59,9.85 19.82,13.79 8.23,3.94 17.5,7.42 27.93,10.55 10.43,3.13 21.09,6.6 31.99,10.31 10.9,3.71 21.56,7.89 31.99,12.64 10.43,4.75 19.82,10.78 28.05,18.08 8.23,7.3 14.84,16.11 19.82,26.31 4.99,10.2 7.42,22.48 7.42,36.85 0,17.15 -3.13,32.92 -9.39,47.4 -6.26,14.49 -15.42,27.01 -27.47,37.55 -12.05,10.55 -26.89,18.78 -44.62,24.69 -17.73,5.91 -38.13,8.92 -61.08,8.92 -12.28,0 -24.22,-1.16 -35.93,-3.36 -11.7,-2.2 -22.95,-5.22 -33.73,-9.15 -10.78,-3.94 -20.75,-8.58 -29.91,-13.91 -9.15,-5.33 -17.27,-11.13 -24.22,-17.38l19.82 -32.92c2.55,-3.94 5.56,-6.96 9.04,-9.16 3.48,-2.09 7.88,-3.13 13.22,-3.13 5.33,0 10.43,1.51 15.18,4.52 4.75,3.01 10.2,6.26 16.46,9.73 6.26,3.48 13.68,6.72 22.14,9.74 8.46,3.01 19.12,4.52 32.1,4.52 10.2,0 19.01,-1.16 26.31,-3.59 7.3,-2.44 13.33,-5.68 18.08,-9.62 4.75,-3.94 8.23,-8.46 10.43,-13.68 2.21,-5.22 3.25,-10.66 3.25,-16.23 0,-8.35 -2.44,-15.07 -7.42,-20.4 -4.98,-5.33 -11.59,-9.97 -19.82,-13.91 -8.23,-3.94 -17.61,-7.53 -28.16,-10.66 -10.55,-3.13 -21.33,-6.49 -32.34,-10.2 -11.01,-3.71 -21.79,-8 -32.34,-12.98 -10.55,-4.98 -19.93,-11.36 -28.16,-19.01 -8.23,-7.65 -14.83,-17.04 -19.82,-28.05 -4.98,-11.13 -7.53,-24.57 -7.53,-40.33 0,-14.6 2.9,-28.51 8.69,-41.73 5.79,-13.21 14.37,-24.69 25.61,-34.54 11.24,-9.85 25.27,-17.73 42.07,-23.65 16.81,-5.91 36.16,-8.8 58.19,-8.8 24.57,0 46.94,4.05 67.11,12.17 20.16,8.11 36.97,18.78 50.42,31.99l-19.47 30.94z"/>
   <g>
    <path class="fil1" d="M183.65 551.24c0,79.35 22.75,145.04 53.31,196.05 25.22,42.09 95.69,113.14 137.14,116.55 24.67,-104.64 112.15,-183.48 175.35,-267.02l38.9 -48.94c81.06,-112.99 32.14,-258.81 -17.92,-368.82 -12.67,-27.84 -84.49,-170.18 -118.11,-179.06 -19.32,39.8 14.76,49.48 -101.96,201.74 -7.41,9.67 -14.95,16.96 -23.4,27.3l-69.96 85.47c-53.44,70.07 -73.36,137.2 -73.36,236.73z"/>
    <path class="fil1" d="M687 403.35c0,74.97 0.75,105.15 -30.64,174.74 -48.48,107.47 -131.96,114.63 -176.38,222.31 -18.21,44.13 -23.06,49.7 -17.44,73.52 36.67,0 32.44,-4.38 55.84,-18.76 16.63,-10.22 31.06,-18.09 52.88,-21.69 45.94,-7.59 88.27,-10.29 125.98,-26.74 68.17,-29.74 108.8,-120.76 108.8,-191.62 0,-90.05 2.3,-115.63 -35.96,-199.75 -19.86,-43.68 -40.76,-67.29 -67.5,-101.34 -8.07,-10.28 -15.69,-18.27 -25.78,-24.94 -7.72,15.91 10.21,65 10.21,114.28z"/>
    <path class="fil1" d="M-0 628.55l0 2.47c0.02,51.2 0.98,62.4 32.89,119.64 13.89,24.91 34.67,44.53 54.61,63.67 28.3,27.17 85.55,48.45 126.69,52.94 55.07,6.02 23.56,-0.08 54.49,-0.08l0 -10.08c-36.48,-3 -92.06,-57.06 -113.75,-92.62 -47.62,-78.12 -48.5,-175.32 -32.61,-263.78 2.5,-13.92 6.71,-29.81 10.22,-43.68 4.1,-16.25 12.49,-25.82 13.7,-40.23 -15.41,1.27 -43.13,26.77 -52.91,38.46l-3.05 3.71c-34.51,41.12 -90.28,105.35 -90.28,169.59z"/>
   </g>
  </g>
 </g>
</svg>
