<?xml version="1.0" encoding="utf-8"?>
<!-- Generator: Adobe Illustrator 22.1.0, SVG Export Plug-In . SVG Version: 6.00 Build 0)  -->
<svg version="1.1" id="Ebene_1" xmlns="http://www.w3.org/2000/svg" xmlns:xlink="http://www.w3.org/1999/xlink" x="0px" y="0px"
	 viewBox="0 0 200 45" style="enable-background:new 0 0 200 45;" xml:space="preserve">
<style type="text/css">
	.st0{fill:#00509A;}
	.st1{filter:url(#Adobe_OpacityMaskFilter);}
	.st2{fill:#FFFFFF;}
	.st3{mask:url(#mask-2_1_);fill:#221F20;}
</style>
<title>Witzenmann Logo</title>
<desc>Created with Sketch.</desc>
<g id="Bereich-_x22_Produkte_x22_">
	<g id="Produkte_kompensatoren_axialuniversalkompensatoren" transform="translate(-1091.000000, -30.000000)">
		<g id="Witzenmann-Logo" transform="translate(1090.000000, 30.000000)">
			<g id="Page-1">
				<path id="Fill-1" class="st0" d="M11.9,0l-7,15.9L5.1,0H1l0.1,22.6h4.5L12.7,7l-0.2,15.7h4.4L27.6,0.1h-4.5l-7,15.8V0H11.9z
					 M35.7,4.2l6,0L38,22.7h4.5l3.7-18.5l5.5,0L52.6,0l-16,0L35.7,4.2z M130.3,0l-8.2,16.3L122.4,0h-5l-10.2,22.7l4.4,0l6.7-15.5
					l0.3,15.4h4l8-15.5l-1.5,15.6h4.3L135,0H130.3z M29.8,0l-4.5,22.6h4.5L34.3,0H29.8z M196.8,0l-3.2,16.1L188.2,0h-4.7l-4.6,22.6
					h4.3l3.1-15.9l5.6,15.9h4.6L201,0H196.8z M175.6,0l-3.1,16.1L167,0h-4.7l-4.6,22.6h4.3L165,6.8l5.6,15.9h4.5L179.8,0H175.6z
					 M106,0l-3.2,16.1L97.3,0h-4.7L88,22.7h4.3l3.1-15.9l5.6,15.9h4.5L110.1,0H106z M73.8,0l-4.5,22.6h15.6l0.9-4.2l-11.2,0l1.1-5.3
					h10l0.8-3.9H76.4l1-5.1l11,0L89.3,0H73.8z M54.2,0l-0.9,4.2h10.4L50,18.6l-0.8,4.1h17.1l0.8-4.2H55.6L69.4,4l0.8-4H54.2z
					 M147.2,0l-12.6,22.6h5.1l3-5.7h7.9l0.8,5.7h4.8l-4-22.6H147.2z M148.8,4.9l1.3,8.3h-5.5L148.8,4.9z"/>
				<g id="Group-4" transform="translate(86.465110, 31.908541)">
					<g id="Clip-3">
					</g>
					<defs>
						<filter id="Adobe_OpacityMaskFilter" filterUnits="userSpaceOnUse" x="1.3" y="0.4" width="106" height="11.7">
							<feColorMatrix  type="matrix" values="1 0 0 0 0  0 1 0 0 0  0 0 1 0 0  0 0 0 1 0"/>
						</filter>
					</defs>
					<mask maskUnits="userSpaceOnUse" x="1.3" y="0.4" width="106" height="11.7" id="mask-2_1_">
						<g class="st1">
							<polygon id="path-1_1_" class="st2" points="1.3,0.4 107.4,0.4 107.4,12.1 1.3,12.1 							"/>
						</g>
					</mask>
					<path id="Fill-2" class="st3" d="M10.3,9.6V5.9c0-1.6-0.3-2.8-2.1-2.8c-1,0-1.7,0.4-2.1,1.4c-0.4-1-1-1.4-2-1.4
						c-0.9,0-1.5,0.4-1.9,1.2L2.1,3.2H1.3c0,0.5,0,1,0,1.5v4.8h0.8V6c0-1.1,0.5-2.2,1.8-2.2c1.3,0,1.5,0.9,1.5,2v3.7h0.8V6
						c0-1.2,0.4-2.2,1.8-2.2c1.2,0,1.6,0.8,1.6,1.9v3.8H10.3z M16.8,9.6c-0.1-0.8-0.1-1.6-0.1-2.4V5.3c0-1.6-0.7-2.2-2.3-2.2
						c-1.1,0-2.2,0.5-2.2,1.7H13c0.1-0.9,0.6-1.2,1.4-1.2c1.1,0,1.5,0.6,1.5,1.6c0,0.2,0,0.3,0,0.4h-0.3c-1.5,0-3.9,0.1-3.9,2.1
						c0,1.3,1,1.9,2.2,1.9c0.9,0,1.6-0.3,2.1-1.1c0,0.3,0.1,0.6,0.1,0.9H16.8z M16,6.3c0,1.4-0.1,2.8-1.9,2.8
						c-0.8,0-1.5-0.5-1.5-1.3c0-1.5,1.8-1.5,2.8-1.5C15.5,6.3,15.7,6.3,16,6.3z M23.8,9.6V5.7c0-1.6-0.5-2.5-2.2-2.5
						c-0.9,0-1.5,0.4-2,1.1l-0.1-1.1h-0.7c0,0.6,0,1.2,0,1.8v4.6h0.8V6.2c0-1.3,0.5-2.4,1.9-2.4c1.4,0,1.6,1,1.6,2.2v3.6H23.8z
						 M30.3,9.6c-0.1-0.8-0.1-1.6-0.1-2.4V5.3c0-1.6-0.7-2.2-2.3-2.2c-1.1,0-2.2,0.5-2.2,1.7h0.7c0.1-0.9,0.6-1.2,1.4-1.2
						c1.1,0,1.5,0.6,1.5,1.6c0,0.2,0,0.3,0,0.4h-0.3c-1.5,0-3.9,0.1-3.9,2.1c0,1.3,1,1.9,2.2,1.9c0.9,0,1.6-0.3,2.1-1.1
						c0,0.3,0.1,0.6,0.1,0.9H30.3z M29.4,6.3c0,1.4-0.1,2.8-1.9,2.8c-0.8,0-1.5-0.5-1.5-1.3c0-1.5,1.8-1.5,2.8-1.5
						C29,6.3,29.2,6.3,29.4,6.3z M37.5,3.2h-0.8c0,0.4,0,0.8,0,1.2c-0.5-0.9-1.2-1.3-2.2-1.3c-1.8,0-2.7,1.6-2.7,3.2
						c0,1.8,0.9,3.2,2.7,3.2c0.9,0,1.6-0.4,2.1-1.2c0,1.6,0,3.2-2,3.2c-0.8,0-1.6-0.3-1.6-1.3h-0.8c0,1.4,1.2,1.9,2.5,1.9
						c2.9,0,2.7-2.4,2.7-4.6V5.3C37.4,4.6,37.4,4.1,37.5,3.2z M36.7,6.3c0,1.3-0.5,2.7-2,2.7c-1.4,0-2-1.3-2-2.6
						c0-1.3,0.5-2.7,2-2.7C36,3.7,36.7,5,36.7,6.3z M39.5,1.4h0.9v-1h-0.9V1.4z M39.5,9.6h0.8V3.2h-0.8V9.6z M47.4,9.6V5.7
						c0-1.6-0.5-2.5-2.2-2.5c-0.9,0-1.5,0.4-2,1.1l0-1.1h-0.7c0,0.6,0,1.2,0,1.8v4.6h0.8V6.2c0-1.3,0.5-2.4,1.9-2.4
						c1.4,0,1.6,1,1.6,2.2v3.6H47.4z M54.7,3.2h-0.8c0,0.4,0,0.8,0,1.2c-0.5-0.9-1.2-1.3-2.2-1.3c-1.8,0-2.7,1.6-2.7,3.2
						c0,1.8,0.9,3.2,2.7,3.2c0.9,0,1.6-0.4,2.1-1.2c0,1.6,0,3.2-2,3.2c-0.8,0-1.6-0.3-1.6-1.3h-0.8c0,1.4,1.2,1.9,2.5,1.9
						c2.9,0,2.7-2.4,2.7-4.6V5.3C54.6,4.6,54.7,4.1,54.7,3.2z M53.9,6.3c0,1.3-0.5,2.7-2,2.7c-1.4,0-2-1.3-2-2.6
						c0-1.3,0.5-2.7,2-2.7C53.3,3.7,53.9,5,53.9,6.3z M64.1,9.6h0.7V0.5h-0.7V9.6z M62.9,1V0.4c-0.3,0-0.5,0-0.8,0
						c-1.7,0-1.5,1.6-1.5,2.8h-1.3v0.6h1.3v5.8h0.7V3.8h1.4V3.2h-1.4v-1c0-0.9,0.2-1.2,1.1-1.2C62.6,1,62.7,1,62.9,1z M71.9,6.5
						c0-1.7-0.5-3.4-2.5-3.4c-2,0-2.8,1.6-2.8,3.4c0,1.8,0.8,3.2,2.7,3.2c1.4,0,2.3-0.7,2.6-2.2h-0.7c-0.2,1-0.8,1.6-1.8,1.6
						c-1.4,0-2.1-1.2-2.1-2.5V6.5H71.9z M71.2,5.9h-3.8c0.1-1.2,0.7-2.2,2-2.2c1.2,0,1.8,1,1.8,2.1V5.9z M78.4,9.6L76,6.3l2.3-3.1
						h-0.9l-1.9,2.6l-1.9-2.6h-0.9L75,6.3l-2.4,3.2h0.9l2-2.8l2,2.8H78.4z M79.6,1.4h0.9v-1h-0.9V1.4z M79.7,9.6h0.8V3.2h-0.8V9.6z
						 M88.1,6.3c0-1.7-0.8-3.2-2.6-3.2c-1,0-1.7,0.4-2.2,1.3V0.5h-0.8v7.2c0,0.6,0,1.3-0.1,1.9h0.7l0.1-1.1c0.5,0.8,1.1,1.2,2,1.2
						C87.2,9.7,88.1,8,88.1,6.3z M87.3,6.4c0,1.3-0.5,2.7-2,2.7c-1.5,0-1.9-1.4-1.9-2.6c0-1.3,0.6-2.7,2.1-2.7
						C86.8,3.7,87.3,5.1,87.3,6.4z M89.7,1.4h0.9v-1h-0.9V1.4z M89.7,9.6h0.8V3.2h-0.8V9.6z M92.6,9.6h0.8V0.5h-0.8V9.6z M95.4,1.4
						h0.9v-1h-0.9V1.4z M95.5,9.6h0.8V3.2h-0.8V9.6z M100.9,9.5V8.9c-0.2,0-0.4,0.1-0.6,0.1c-0.8,0-0.9-0.3-0.9-1.1V3.8h1.4V3.2
						h-1.4V1.6l-0.8,0.3v1.3h-1.2v0.6h1.2v4.5c0,0.9,0.4,1.4,1.3,1.4C100.4,9.6,100.7,9.6,100.9,9.5z M107.4,3.2h-0.8l-2.1,5.3
						l-2.1-5.3h-0.9l2.6,6.3l-1,2.4h0.8L107.4,3.2z"/>
				</g>
			</g>
		</g>
	</g>
</g>
</svg>
